<?xml version="1.0" standalone="no"?>
<svg viewBox="0 0 200 200" xmlns="http://www.w3.org/2000/svg">
  <path fill="#FFC234" d="M27.9,-41.4C37.4,-42.8,47.3,-37.9,57.7,-29.9C68.1,-22,79.1,-11,83.5,2.5C87.9,16.1,85.7,32.1,76.4,42C67.1,52,50.7,55.7,36.8,54.9C22.9,54.2,11.4,48.8,-0.3,49.4C-12.1,49.9,-24.1,56.3,-38.2,57.2C-52.4,58.1,-68.6,53.5,-75.8,43.1C-83,32.6,-81.2,16.3,-76.6,2.6C-72.1,-11.1,-64.8,-22.2,-52.7,-24C-40.6,-25.9,-23.6,-18.6,-14,-17.2C-4.4,-15.8,-2.2,-20.2,3.5,-26.3C9.2,-32.3,18.4,-40,27.9,-41.4Z" transform="translate(100 100)" />
</svg>
