<?xml version="1.0" standalone="no"?>
<svg viewBox="0 0 200 200" xmlns="http://www.w3.org/2000/svg">
  <path fill="#FFC234" d="M36.8,-57C46.5,-51,52.6,-38.9,61.1,-26.1C69.6,-13.4,80.7,-0.1,79.6,11.8C78.5,23.8,65.2,34.4,54.1,46.3C42.9,58.2,33.9,71.4,22.3,73.7C10.8,76,-3.2,67.3,-18,62.5C-32.8,57.6,-48.4,56.5,-57.3,48.4C-66.2,40.3,-68.4,25.2,-65.8,12.3C-63.1,-0.6,-55.6,-11.3,-51.4,-24.8C-47.2,-38.3,-46.4,-54.5,-38.4,-61.4C-30.3,-68.3,-15.2,-65.7,-0.8,-64.4C13.5,-63.1,27,-63.1,36.8,-57Z" transform="translate(100 100)" />
</svg>
